<?xml version="1.0" encoding="utf-8"?>
<!-- Generator: Adobe Illustrator 25.2.3, SVG Export Plug-In . SVG Version: 6.00 Build 0)  -->
<svg version="1.1" id="Lager_1" xmlns="http://www.w3.org/2000/svg" xmlns:xlink="http://www.w3.org/1999/xlink" x="0px" y="0px"
	 viewBox="0 0 800 490" style="enable-background:new 0 0 800 490;" xml:space="preserve">
<style type="text/css">
	.st0{fill:#999999;}
	.st1{fill:none;stroke:#404040;stroke-width:4;stroke-miterlimit:10;}
	.st2{fill:#4ED1A1;stroke:#404040;stroke-width:4;stroke-miterlimit:10;}
	.st3{fill:#FFFFFF;stroke:#404040;stroke-width:4;stroke-miterlimit:10;}
	.st4{fill:#B3E3FF;stroke:#404040;stroke-width:4;stroke-linejoin:round;stroke-miterlimit:10;}
	.st5{fill:#59AFE1;stroke:#404040;stroke-width:4;stroke-linejoin:round;stroke-miterlimit:10;}
	.st6{fill:#4ED1A1;stroke:#404040;stroke-width:4;stroke-linecap:round;stroke-linejoin:round;stroke-miterlimit:10;}
	.st7{fill:#404040;}
	.st8{fill:none;stroke:#404040;stroke-width:4;stroke-linecap:round;stroke-linejoin:round;stroke-miterlimit:10;}
	.st9{fill:#414141;}
</style>
<path class="st0" d="M278.7,14.1V5.8l-3.6,8.3h-1.3l-3.6-8.3v8.3h-1.5V3.4h2l3.7,8.7l3.8-8.7h2V14L278.7,14.1L278.7,14.1z M285.1,10
	l1.9-0.3c0.4-0.1,0.6-0.3,0.6-0.5c0-0.7-0.5-1.3-1.6-1.3c-1,0-1.5,0.6-1.6,1.5L283.1,9c0.2-1.4,1.4-2.3,3-2.3c2.2,0,3,1.2,3,2.6v3.6
	c0,0.6,0.1,1,0.1,1.2h-1.4c0-0.2-0.1-0.4-0.1-1c-0.3,0.5-1,1.2-2.3,1.2c-1.5,0-2.4-1-2.4-2.2C282.9,10.9,283.9,10.1,285.1,10
	L285.1,10z M287.6,11v-0.3l-2.2,0.3c-0.6,0.1-1,0.4-1,1.1c0,0.5,0.4,1.1,1.2,1.1C286.7,13.1,287.6,12.6,287.6,11z M293.4,14.1H292
	V6.9h1.4v1c0.5-0.9,1.4-1.2,2.2-1.2c1.7,0,2.6,1.2,2.6,2.8v4.6h-1.4V9.7c0-1-0.4-1.8-1.7-1.8c-1.1,0-1.7,0.9-1.7,2V14.1z
	 M301.4,17.1l1.8-3.8l-3.1-6.4h1.6l2.2,5l2.2-5h1.5L303,17.1C303,17.1,301.4,17.1,301.4,17.1z M319.8,6.9l1.9,5.4l1.6-5.4h1.5
	l-2.3,7.2H321l-2-5.5l-1.9,5.5h-1.5l-2.4-7.2h1.5l1.6,5.4l1.9-5.4L319.8,6.9L319.8,6.9z M328.6,10l1.9-0.3c0.4-0.1,0.6-0.3,0.6-0.5
	c0-0.7-0.5-1.3-1.6-1.3c-1,0-1.5,0.6-1.6,1.5L326.5,9c0.2-1.4,1.4-2.3,3-2.3c2.2,0,3,1.2,3,2.6v3.6c0,0.6,0.1,1,0.1,1.2h-1.4
	c0-0.2-0.1-0.4-0.1-1c-0.3,0.5-1,1.2-2.3,1.2c-1.5,0-2.4-1-2.4-2.2S327.3,10.1,328.6,10L328.6,10z M331.1,11v-0.3l-2.2,0.3
	c-0.6,0.1-1.1,0.4-1.1,1.1c0,0.5,0.4,1.1,1.2,1.1C330.1,13.1,331.1,12.6,331.1,11z M335.5,17.1l1.8-3.8l-3.1-6.4h1.6l2.2,5l2.2-5
	h1.5L337,17.1C337,17.1,335.5,17.1,335.5,17.1z M344.3,11.8c0.1,0.8,0.7,1.3,1.7,1.3c0.8,0,1.2-0.4,1.2-1c0-0.5-0.3-0.8-0.9-0.9
	l-1.2-0.3c-1.1-0.2-1.8-1-1.8-2c0-1.2,1.2-2.3,2.6-2.3c2,0,2.6,1.3,2.7,1.9L347.3,9c-0.1-0.4-0.4-1.2-1.5-1.2c-0.7,0-1.2,0.5-1.2,1
	c0,0.4,0.3,0.8,0.8,0.9l1.2,0.3c1.3,0.3,2,1.1,2,2.1s-0.9,2.2-2.6,2.2c-2,0-2.8-1.3-2.9-2.1L344.3,11.8L344.3,11.8z M362.5,10.5
	c0,2.2-1.5,3.8-3.7,3.8s-3.7-1.6-3.7-3.8s1.5-3.8,3.7-3.8S362.5,8.3,362.5,10.5z M361.1,10.5c0-1.7-1.1-2.6-2.2-2.6
	s-2.2,0.9-2.2,2.6s1,2.6,2.2,2.6S361.1,12.1,361.1,10.5z M367,8.1V14h-1.5V8.1h-1.3V6.9h1.3V5.7c0-1.6,1.1-2.5,2.4-2.5
	c0.5,0,0.8,0.1,0.8,0.2v1.3c-0.1,0-0.3-0.1-0.6-0.1c-0.5,0-1.1,0.2-1.1,1.2v1.1h1.7v1.3H367L367,8.1z M379.5,8.3h-0.6
	c-1.2,0-2,0.6-2,2.2v3.6h-1.4V6.9h1.4v1.3c0.5-1.1,1.4-1.4,2.2-1.4h0.5v1.5L379.5,8.3z M387.9,12c-0.4,1.3-1.6,2.3-3.2,2.3
	c-1.9,0-3.6-1.4-3.6-3.9c0-2.3,1.6-3.8,3.4-3.8c2.2,0,3.5,1.5,3.5,3.8v0.5h-5.4c0,1.3,1,2.2,2.2,2.2s1.8-0.6,2-1.5
	C386.8,11.6,387.9,12,387.9,12z M386.5,9.7c0-1-0.7-1.8-2-1.8c-1.2,0-1.9,0.9-2,1.8H386.5z M392.4,8.1V14H391V8.1h-1.3V6.9h1.3V5.7
	c0-1.6,1.1-2.5,2.4-2.5c0.5,0,0.8,0.1,0.8,0.2v1.3c-0.1,0-0.3-0.1-0.6-0.1c-0.5,0-1.1,0.2-1.1,1.2v1.1h1.7v1.3h-1.8V8.1z M402.4,12
	c-0.4,1.3-1.6,2.3-3.2,2.3c-1.9,0-3.6-1.4-3.6-3.9c0-2.3,1.6-3.8,3.4-3.8c2.2,0,3.5,1.5,3.5,3.8v0.5H397c0,1.3,1,2.2,2.2,2.2
	s1.8-0.6,2-1.5C401.2,11.6,402.4,12,402.4,12z M401,9.7c0-1-0.7-1.8-2-1.8c-1.2,0-1.9,0.9-2,1.8H401z M409,8.3h-0.6
	c-1.2,0-2,0.6-2,2.2v3.6H405V6.9h1.4v1.3c0.5-1.1,1.4-1.4,2.2-1.4h0.5v1.5L409,8.3z M415.3,8.3h-0.6c-1.2,0-2,0.6-2,2.2v3.6h-1.4
	V6.9h1.4v1.3c0.5-1.1,1.4-1.4,2.2-1.4h0.5v1.5L415.3,8.3z M418.2,3.1c0.6,0,1,0.5,1,1c0,0.6-0.4,1-1,1s-1-0.4-1-1
	C417.2,3.6,417.7,3.1,418.2,3.1z M417.5,14.1V6.9h1.4v7.2H417.5z M423.5,14.1h-1.4V6.9h1.4v1c0.5-0.9,1.4-1.2,2.2-1.2
	c1.7,0,2.6,1.2,2.6,2.8v4.6h-1.4V9.7c0-1-0.4-1.8-1.7-1.8c-1.1,0-1.7,0.9-1.7,2V14.1z M432.1,14.2c0.1,1,0.9,1.8,2,1.8
	c1.5,0,2.2-0.8,2.2-2.3v-1c-0.3,0.7-1.1,1.2-2.2,1.2c-1.9,0-3.3-1.5-3.3-3.5c0-1.9,1.3-3.5,3.3-3.5c1.1,0,1.9,0.4,2.2,1.1V7h1.4v6.7
	c0,1.8-0.9,3.6-3.6,3.6c-1.8,0-3.1-1.1-3.3-2.7C430.8,14.6,432.1,14.2,432.1,14.2z M436.3,10.2c0-1.4-0.8-2.3-2.1-2.3
	c-1.2,0-2.1,0.9-2.1,2.3s0.8,2.3,2.1,2.3C435.5,12.6,436.3,11.6,436.3,10.2z M447.1,6.9h1.6v1.3h-1.6V12c0,0.7,0.3,1,1,1
	c0.2,0,0.4,0,0.6-0.1V14c-0.1,0-0.5,0.1-1,0.1c-1.2,0-2-0.8-2-2.1V8h-1.4V6.9h0.4c0.8,0,1.1-0.5,1.1-1.1V4.6h1.3
	C447.1,4.6,447.1,6.9,447.1,6.9z M457.9,10.5c0,2.2-1.5,3.8-3.7,3.8s-3.7-1.6-3.7-3.8s1.5-3.8,3.7-3.8S457.9,8.3,457.9,10.5z
	 M456.5,10.5c0-1.7-1.1-2.6-2.2-2.6s-2.2,0.9-2.2,2.6s1,2.6,2.2,2.6S456.5,12.1,456.5,10.5z M466.7,10l1.9-0.3
	c0.4-0.1,0.6-0.3,0.6-0.5c0-0.7-0.5-1.3-1.6-1.3c-1,0-1.5,0.6-1.6,1.5L464.7,9c0.2-1.4,1.4-2.3,3-2.3c2.2,0,3,1.2,3,2.6v3.6
	c0,0.6,0.1,1,0.1,1.2h-1.4c0-0.2-0.1-0.4-0.1-1c-0.3,0.5-1,1.2-2.3,1.2c-1.5,0-2.4-1-2.4-2.2C464.5,10.9,465.5,10.1,466.7,10
	L466.7,10z M469.2,11v-0.3L467,11c-0.6,0.1-1,0.4-1,1.1c0,0.5,0.4,1.1,1.2,1.1C468.3,13.1,469.2,12.6,469.2,11z M478.9,10.5
	c0,1.6,1,2.5,2.2,2.5c1.3,0,1.8-0.9,2-1.5l1.2,0.5c-0.3,1-1.4,2.2-3.3,2.2c-2.1,0-3.6-1.6-3.6-3.8s1.6-3.8,3.6-3.8
	c1.9,0,2.9,1.2,3.2,2.3l-1.3,0.5c-0.2-0.7-0.7-1.5-1.9-1.5C480,7.9,478.9,8.8,478.9,10.5L478.9,10.5z M493.5,10.5
	c0,2.2-1.5,3.8-3.7,3.8s-3.7-1.6-3.7-3.8s1.5-3.8,3.7-3.8S493.5,8.3,493.5,10.5z M492.1,10.5c0-1.7-1.1-2.6-2.2-2.6
	s-2.2,0.9-2.2,2.6s1,2.6,2.2,2.6S492.1,12.1,492.1,10.5z M496,14.1V6.9h1.3v1c0.4-0.8,1.4-1.2,2.2-1.2c0.9,0,1.8,0.4,2.2,1.4
	c0.6-1,1.5-1.4,2.4-1.4c1.3,0,2.5,0.9,2.5,2.7v4.7h-1.4V9.6c0-0.9-0.5-1.7-1.5-1.7S502,8.7,502,9.7v4.4h-1.4V9.6
	c0-0.9-0.4-1.7-1.5-1.7c-1,0-1.7,0.8-1.7,1.8V14L496,14.1L496,14.1z M509.6,14.1V6.9h1.3v1c0.4-0.8,1.4-1.2,2.2-1.2
	c0.9,0,1.8,0.4,2.2,1.4c0.6-1,1.5-1.4,2.4-1.4c1.3,0,2.5,0.9,2.5,2.7v4.7h-1.4V9.6c0-0.9-0.5-1.7-1.5-1.7s-1.7,0.8-1.7,1.8v4.4h-1.4
	V9.6c0-0.9-0.4-1.7-1.5-1.7c-1,0-1.7,0.8-1.7,1.8V14L509.6,14.1L509.6,14.1z M523.9,3.1c0.6,0,1,0.5,1,1c0,0.6-0.4,1-1,1s-1-0.4-1-1
	C522.9,3.6,523.4,3.1,523.9,3.1z M523.3,14.1V6.9h1.4v7.2H523.3z M529.7,6.9h1.6v1.3h-1.6V12c0,0.7,0.3,1,1,1c0.2,0,0.4,0,0.6-0.1
	V14c-0.1,0-0.5,0.1-1,0.1c-1.2,0-2-0.8-2-2.1V8h-1.4V6.9h0.4c0.8,0,1.1-0.5,1.1-1.1V4.6h1.3L529.7,6.9L529.7,6.9z"/>
<path class="st1" d="M276.9,342.5h216.2 M334.7,301.5c0,22.6-18.4,41-41,41 M334.7,301.5c0-22.6,18.4-41,41-41h214.9"/>
<circle class="st2" cx="419" cy="260.5" r="21"/>
<circle class="st2" cx="515.3" cy="260.5" r="21"/>
<circle class="st2" cx="611.6" cy="260.5" r="21"/>
<path class="st1" d="M123.7,342.5h170"/>
<circle class="st3" cx="144.7" cy="342.5" r="21"/>
<ellipse transform="matrix(0.1602 -0.9871 0.9871 0.1602 -135.9333 525.2296)" class="st3" cx="240.7" cy="342.5" rx="21" ry="21"/>
<circle class="st4" cx="418.1" cy="342.5" r="21"/>
<circle class="st5" cx="514.1" cy="342.5" r="21"/>
<path class="st6" d="M561.6,119.5h100v50h-100V119.5z"/>
<path class="st7" d="M597.3,150.5v-4.7h-5.4v4.7h-1.5v-10.6h1.5v4.5h5.4v-4.5h1.5v10.6H597.3z M608.9,146.9c0,2.2-1.5,3.8-3.7,3.8
	s-3.7-1.6-3.7-3.8s1.5-3.8,3.7-3.8S608.9,144.7,608.9,146.9z M607.4,146.9c0-1.7-1.1-2.6-2.2-2.6s-2.2,0.9-2.2,2.6
	c0,1.7,1.1,2.6,2.2,2.6S607.4,148.6,607.4,146.9z M613.2,143.3h1.6v1.3h-1.6v3.8c0,0.7,0.3,1,1,1c0.2,0,0.4,0,0.6-0.1v1.2
	c-0.1,0-0.5,0.1-1,0.1c-1.2,0-2-0.8-2-2.1v-4h-1.4v-1.3h0.4c0.8,0,1.1-0.5,1.1-1.1V141h1.3L613.2,143.3L613.2,143.3z M621.1,139.7
	v1.3c-0.1,0-0.3-0.1-0.6-0.1c-0.5,0-1.1,0.2-1.1,1.2v1.2h4.8v7.2h-1.4v-5.9h-3.4v5.9h-1.5v-5.9h-1.3v-1.3h1.3v-1.2
	c0-1.6,1.1-2.5,2.4-2.5C620.7,139.6,621,139.7,621.1,139.7z M623.4,139.5c0.6,0,1,0.5,1,1c0,0.6-0.4,1-1,1s-1-0.4-1-1
	S622.8,139.5,623.4,139.5z M628.9,146.8l-2.6-3.5h1.7l1.8,2.5l1.7-2.5h1.7l-2.6,3.5c0.4,0.6,2.2,3.1,2.7,3.7h-1.7l-1.9-2.7l-1.8,2.7
	h-1.7L628.9,146.8L628.9,146.8z M394.5,162.1c0.6-0.9,1.6-1.6,3-1.6s2.4,0.6,3,1.6s0.9,2.2,0.9,3.5s-0.2,2.6-0.9,3.5
	c-0.6,0.9-1.6,1.6-3,1.6s-2.4-0.6-3-1.6s-0.9-2.2-0.9-3.5S393.9,163.1,394.5,162.1z M396,168.8c0.4,0.4,0.9,0.6,1.5,0.6
	s1.2-0.2,1.5-0.6c0.6-0.6,0.9-1.7,0.9-3.1s-0.3-2.5-0.9-3.1c-0.4-0.4-0.9-0.6-1.5-0.6s-1.2,0.2-1.5,0.6c-0.6,0.6-0.9,1.7-0.9,3.1
	S395.4,168.2,396,168.8z M410,162.2c-0.9,0.7-3.6,3.2-4.1,8.3h-1.5c0.4-5.7,4-8.4,4-8.4h-5.5v-1.4h7.1V162.2L410,162.2z
	 M413.9,164.6v5.9h-1.5v-5.9h-1.3v-1.3h1.3v-1.2c0-1.6,1.1-2.5,2.4-2.5c0.5,0,0.8,0.1,0.8,0.2v1.3c-0.1,0-0.3-0.1-0.6-0.1
	c-0.5,0-1.1,0.2-1.1,1.2v1.1h1.7v1.3H413.9L413.9,164.6z M418,170.5v-10.9h1.4v4.7c0.3-0.6,1.2-1.2,2.4-1.2c2.2,0,3.3,1.7,3.3,3.8
	s-1.2,3.8-3.4,3.8c-1.1,0-1.9-0.5-2.3-1.2v1.1H418V170.5z M421.5,164.3c-1.2,0-2.1,1-2.1,2.5s0.9,2.6,2.1,2.6c1.3,0,2.1-1,2.1-2.6
	S422.8,164.3,421.5,164.3z M433.9,168.4c-0.4,1.3-1.6,2.3-3.2,2.3c-1.9,0-3.6-1.4-3.6-3.9c0-2.3,1.6-3.8,3.4-3.8
	c2.2,0,3.5,1.5,3.5,3.8v0.4h-5.4c0,1.3,1,2.2,2.2,2.2s1.8-0.6,2-1.5L433.9,168.4z M432.5,166.1c0-1-0.7-1.8-2-1.8
	c-1.2,0-1.9,0.9-2,1.8H432.5z M435.9,164.1v-0.4c0-1.7,1.2-3.2,3.4-3.2c2.1,0,3.3,1.4,3.3,3c0,1.3-0.7,2.3-1.8,3l-1.9,1.2
	c-0.6,0.4-1.1,0.8-1.2,1.4h5v1.4h-6.8c0-1.6,0.7-2.8,2.3-3.9l1.6-1c0.9-0.6,1.3-1.3,1.3-2c0-0.9-0.6-1.7-1.8-1.7
	c-1.3,0-1.9,0.9-1.9,2v0.4L435.9,164.1z"/>
<path class="st8" d="M611.6,215.3v-23.5 M622.5,206.6l-10.9,10.9l-10.9-10.9 M419,215.3v-23.5 M429.9,206.6L419,217.5l-10.8-10.9"/>
<path class="st7" d="M552.1,93.4h-0.6c-1.2,0-2,0.6-2,2.2v3.6H548V92h1.4v1.3c0.5-1.1,1.4-1.4,2.2-1.4h0.5L552.1,93.4L552.1,93.4z
	 M560.5,97.1c-0.4,1.3-1.6,2.3-3.2,2.3c-1.9,0-3.6-1.4-3.6-3.9c0-2.3,1.6-3.8,3.4-3.8c2.2,0,3.5,1.5,3.5,3.8v0.4h-5.4
	c0,1.3,1,2.2,2.2,2.2s1.8-0.6,2-1.5L560.5,97.1z M559.1,94.8c0-1-0.7-1.8-2-1.8c-1.2,0-1.9,0.9-2,1.8H559.1z M565,93.2v5.9h-1.5
	v-5.9h-1.3v-1.3h1.3v-1.2c0-1.6,1.1-2.5,2.4-2.5c0.5,0,0.8,0.1,0.8,0.2v1.3c-0.1,0-0.3-0.1-0.6-0.1c-0.5,0-1.1,0.2-1.1,1.2v1.1h1.7
	v1.3H565L565,93.2z M569.6,96.8c0.1,0.8,0.7,1.3,1.7,1.3c0.8,0,1.2-0.4,1.2-1c0-0.5-0.3-0.8-0.9-0.9l-1.2-0.3c-1.1-0.2-1.8-1-1.8-2
	c0-1.2,1.2-2.3,2.6-2.3c2,0,2.6,1.3,2.7,1.9l-1.2,0.5c-0.1-0.4-0.4-1.2-1.5-1.2c-0.7,0-1.2,0.5-1.2,1c0,0.4,0.3,0.8,0.8,0.9L572,95
	c1.3,0.3,2,1.1,2,2.1s-0.9,2.2-2.6,2.2c-2,0-2.8-1.3-2.9-2.1L569.6,96.8L569.6,96.8z M576.8,99.2h-1.4l5.1-10.6h1.4L576.8,99.2z
	 M585.4,99.2H584V88.3h1.4v4.5c0.5-0.8,1.4-1.1,2.2-1.1c1.7,0,2.6,1.2,2.6,2.8v4.6h-1.4v-4.3c0-1-0.4-1.8-1.7-1.8
	c-1.1,0-1.6,0.8-1.7,1.9L585.4,99.2L585.4,99.2z M599.4,97.1c-0.4,1.3-1.6,2.3-3.2,2.3c-1.9,0-3.6-1.4-3.6-3.9
	c0-2.3,1.6-3.8,3.4-3.8c2.2,0,3.5,1.5,3.5,3.8v0.4H594c0,1.3,1,2.2,2.2,2.2s1.8-0.6,2-1.5L599.4,97.1L599.4,97.1z M598,94.8
	c0-1-0.7-1.8-2-1.8c-1.2,0-1.9,0.9-2,1.8H598z M603.7,95l1.9-0.3c0.4-0.1,0.6-0.3,0.6-0.5c0-0.7-0.5-1.3-1.6-1.3
	c-1,0-1.5,0.6-1.6,1.5l-1.4-0.3c0.2-1.4,1.4-2.3,3-2.3c2.2,0,3,1.2,3,2.6V98c0,0.6,0.1,1,0.1,1.2h-1.4c0-0.2-0.1-0.5-0.1-1
	c-0.3,0.5-1,1.2-2.3,1.2c-1.5,0-2.4-1-2.4-2.2C601.6,95.9,602.5,95.2,603.7,95L603.7,95z M606.2,96.1v-0.3l-2.2,0.3
	c-0.6,0.1-1,0.4-1,1.1c0,0.5,0.4,1,1.2,1C605.3,98.2,606.2,97.6,606.2,96.1z M615.7,98.1c-0.3,0.7-1.1,1.3-2.2,1.3
	c-2.1,0-3.4-1.7-3.4-3.8c0-2,1.4-3.8,3.4-3.8c1.3,0,2,0.6,2.2,1.2v-4.7h1.4v9.5c0,0.7,0.1,1.2,0.1,1.3h-1.4
	C615.8,98.9,615.7,98.6,615.7,98.1z M613.6,98.1c1.3,0,2.1-1.1,2.1-2.6s-0.8-2.5-2.1-2.5s-2.1,1.1-2.1,2.5S612.2,98.1,613.6,98.1z
	 M620.8,96.8c0.1,0.8,0.7,1.3,1.7,1.3c0.8,0,1.2-0.4,1.2-1c0-0.5-0.3-0.8-0.9-0.9l-1.2-0.3c-1.1-0.2-1.8-1-1.8-2
	c0-1.2,1.2-2.3,2.6-2.3c2,0,2.6,1.3,2.7,1.9l-1.2,0.5c-0.1-0.4-0.4-1.2-1.5-1.2c-0.7,0-1.2,0.5-1.2,1c0,0.4,0.3,0.8,0.8,0.9l1.2,0.3
	c1.3,0.3,2,1.1,2,2.1s-0.9,2.2-2.6,2.2c-2,0-2.8-1.3-2.9-2.1L620.8,96.8L620.8,96.8z M628,99.2h-1.4l5.1-10.6h1.4L628,99.2z
	 M636.5,99.2h-1.4V88.3h1.4v4.5c0.5-0.8,1.4-1.1,2.2-1.1c1.7,0,2.6,1.2,2.6,2.8v4.6h-1.4v-4.3c0-1-0.4-1.8-1.7-1.8
	c-1.1,0-1.6,0.8-1.7,1.9L636.5,99.2L636.5,99.2z M651.1,95.5c0,2.2-1.5,3.8-3.7,3.8s-3.7-1.6-3.7-3.8c0-2.2,1.5-3.8,3.7-3.8
	S651.1,93.4,651.1,95.5z M649.6,95.5c0-1.7-1.1-2.6-2.2-2.6s-2.2,0.9-2.2,2.6s1,2.6,2.2,2.6S649.6,97.2,649.6,95.5z M655.4,91.9h1.6
	v1.3h-1.6V97c0,0.7,0.3,1,1,1c0.2,0,0.4,0,0.6-0.1v1.2c-0.1,0-0.5,0.1-1,0.1c-1.2,0-2-0.8-2-2.1v-4h-1.4v-1.3h0.4
	c0.8,0,1.1-0.5,1.1-1.1v-1.2h1.3L655.4,91.9L655.4,91.9z M663.3,88.4v1.3c-0.1,0-0.3-0.1-0.6-0.1c-0.5,0-1.1,0.2-1.1,1.2V92h4.8v7.2
	H665v-5.9h-3.4v5.9h-1.5v-5.9h-1.3V92h1.3v-1.2c0-1.6,1.1-2.5,2.4-2.5C662.9,88.3,663.2,88.4,663.3,88.4z M665.6,88.2
	c0.6,0,1,0.5,1,1c0,0.6-0.4,1-1,1s-1-0.4-1-1S665,88.2,665.6,88.2z M671.1,95.5l-2.6-3.5h1.7l1.8,2.5l1.7-2.5h1.7l-2.6,3.5
	c0.4,0.6,2.2,3.1,2.7,3.7h-1.7l-1.9-2.7l-1.8,2.7h-1.7L671.1,95.5L671.1,95.5z"/>
<path class="st4" d="M439.1,434.4h150v50h-150L439.1,434.4z"/>
<path class="st7" d="M507.8,465.4h-1.4l5.1-10.6h1.4L507.8,465.4z M526.5,465.4v-4.7H521v4.7h-1.5v-10.6h1.5v4.5h5.4v-4.5h1.5v10.6
	H526.5z M531.4,465.4v-10.6h6.5v1.4h-5v3.3h4.5v1.4h-4.5v3.3h5v1.4h-6.5V465.4z M547.1,462.5h-4.7l-1.1,3h-1.6l4.2-10.6h1.7
	l4.2,10.6h-1.6L547.1,462.5L547.1,462.5z M542.9,461.1h3.7l-1.8-4.8L542.9,461.1z M552.1,465.4v-10.6h3.7c2.7,0,5.1,1.8,5.1,5.3
	s-2.4,5.3-5.1,5.3L552.1,465.4L552.1,465.4z M555.7,464.1c2,0,3.6-1.3,3.6-4s-1.6-4-3.6-4h-2.2v8H555.7z M220.7,441.4v-4.7h-5.4v4.7
	h-1.5v-10.6h1.5v4.5h5.4v-4.5h1.5v10.6H220.7z M225.6,441.4v-10.6h6.5v1.4h-5v3.3h4.5v1.4h-4.5v3.3h5v1.4h-6.5V441.4z M241.3,438.5
	h-4.7l-1.1,3h-1.6l4.2-10.6h1.7l4.2,10.6h-1.6L241.3,438.5L241.3,438.5z M237.1,437.1h3.7l-1.8-4.8L237.1,437.1z M246.3,441.4v-10.6
	h3.7c2.7,0,5.1,1.8,5.1,5.3s-2.4,5.3-5.1,5.3L246.3,441.4L246.3,441.4z M249.9,440.1c2,0,3.6-1.3,3.6-4s-1.6-4-3.6-4h-2.2v8H249.9z
	 M261.6,435v-0.4c0-1.7,1.2-3.1,3.4-3.1c2.1,0,3.3,1.4,3.3,3c0,1.3-0.7,2.3-1.8,3l-1.9,1.2c-0.6,0.4-1.1,0.8-1.2,1.4h5v1.4h-6.8
	c0-1.6,0.7-2.8,2.3-3.9l1.6-1c0.9-0.6,1.3-1.3,1.3-2c0-0.9-0.6-1.7-1.8-1.7c-1.3,0-1.9,0.9-1.9,2v0.4L261.6,435z"/>
<path class="st8" d="M514.1,387.9v23.5 M503.2,396.6l10.9-10.8l10.8,10.8 M240.7,387.9v23.5 M229.8,396.6l10.9-10.8l10.8,10.8"/>
<g>
	<g>
		<path class="st9" d="M467.8,465.5v-10h2l2.4,7.1c0.2,0.7,0.4,1.2,0.5,1.5c0.1-0.4,0.3-0.9,0.5-1.6l2.4-7h1.8v10h-1.3v-8.4
			l-2.9,8.4H472l-2.9-8.5v8.5H467.8z"/>
		<path class="st9" d="M484.8,464.6c-0.5,0.4-0.9,0.7-1.3,0.8c-0.4,0.2-0.9,0.2-1.4,0.2c-0.8,0-1.4-0.2-1.8-0.6
			c-0.4-0.4-0.6-0.9-0.6-1.5c0-0.4,0.1-0.7,0.2-1c0.2-0.3,0.4-0.5,0.6-0.7c0.3-0.2,0.6-0.3,0.9-0.4c0.2-0.1,0.6-0.1,1.1-0.2
			c1-0.1,1.7-0.3,2.2-0.4c0-0.2,0-0.3,0-0.3c0-0.5-0.1-0.9-0.3-1.1c-0.3-0.3-0.8-0.4-1.4-0.4c-0.6,0-1,0.1-1.3,0.3
			c-0.3,0.2-0.5,0.6-0.6,1.1l-1.2-0.2c0.1-0.5,0.3-0.9,0.5-1.2c0.3-0.3,0.6-0.6,1.1-0.7c0.5-0.2,1-0.3,1.6-0.3s1.1,0.1,1.5,0.2
			s0.7,0.3,0.9,0.6c0.2,0.2,0.3,0.5,0.4,0.8c0,0.2,0.1,0.6,0.1,1.1v1.6c0,1.1,0,1.9,0.1,2.2s0.2,0.6,0.3,0.9h-1.3
			C484.9,465.3,484.8,465,484.8,464.6z M484.7,461.9c-0.4,0.2-1.1,0.3-2,0.5c-0.5,0.1-0.9,0.2-1.1,0.2c-0.2,0-0.4,0.2-0.5,0.4
			c-0.1,0.2-0.2,0.4-0.2,0.6c0,0.3,0.1,0.6,0.4,0.8c0.2,0.2,0.6,0.3,1.1,0.3s0.9-0.1,1.3-0.3c0.4-0.2,0.6-0.5,0.8-0.9
			c0.1-0.3,0.2-0.7,0.2-1.2V461.9L484.7,461.9z"/>
		<path class="st9" d="M488.5,456.9v-1.4h1.2v1.4H488.5z M488.5,465.5v-7.3h1.2v7.3H488.5z"/>
		<path class="st9" d="M492.3,465.5v-7.3h1.1v1c0.5-0.8,1.3-1.2,2.3-1.2c0.4,0,0.8,0.1,1.2,0.2c0.4,0.2,0.6,0.4,0.8,0.6
			s0.3,0.6,0.4,0.9c0,0.2,0.1,0.6,0.1,1.2v4.5H497V461c0-0.5,0-0.9-0.1-1.1s-0.3-0.4-0.5-0.6c-0.2-0.1-0.5-0.2-0.9-0.2
			c-0.5,0-1,0.2-1.4,0.5s-0.6,1-0.6,1.9v4H492.3L492.3,465.5z"/>
	</g>
</g>
</svg>
